<svg xmlns="http://www.w3.org/2000/svg" width="299" height="76" viewBox="0 0 299 76">
  <g id="Polygon_1" data-name="Polygon 1" transform="translate(299 76) rotate(180)" fill="#fff">
    <path d="M 295.8706665039062 75.36699676513672 L 149.5211486816406 69.16712188720703 L 149.5 69.16619873046875 L 149.4788513183594 69.16712188720703 L 3.129347085952759 75.36699676513672 L 93.61215209960938 41.63515853881836 L 93.67734527587891 41.6108512878418 L 93.73342132568359 41.56965637207031 L 149.5 0.6202999353408813 L 205.2665710449219 41.56965637207031 L 205.3226470947266 41.6108512878418 L 205.3878479003906 41.63515853881836 L 295.8706665039062 75.36699676513672 Z" stroke="none"/>
    <path d="M 149.5 1.24066162109375 L 93.91719055175781 42.0550422668457 L 93.78680419921875 42.10365676879883 L 6.258819580078125 74.73394775390625 L 149.5 68.665771484375 L 149.5423126220703 68.66754150390625 L 292.7411804199219 74.73394775390625 L 205.0828094482422 42.0550422668457 L 204.9706115722656 41.97269439697266 L 149.5 1.24066162109375 M 149.5 7.62939453125e-06 L 205.5625 41.16665649414062 L 299 76 L 149.5 69.66665649414062 L 0 76 L 93.4375 41.16665649414062 L 149.5 7.62939453125e-06 Z" stroke="none" fill="#707070"/>
  </g>
</svg>
